<?xml version="1.0" encoding="UTF-8"?>
<!DOCTYPE svg PUBLIC "-//W3C//DTD SVG 1.1//EN" "http://www.w3.org/Graphics/SVG/1.1/DTD/svg11.dtd">
<!-- Creator: Ngene-->
<svg xmlns="http://www.w3.org/2000/svg" xml:space="preserve" width=" 1770 " height=" 2770 " version="1.1" style="shape-rendering:geometricPrecision; text-rendering:geometricPrecision; image-rendering:optimizeQuality; fill-rule:evenodd; clip-rule:evenodd"
viewBox="0 0 viewboxx viewboxy"
 xmlns:xlink="http://www.w3.org/1999/xlink">
 <defs>
  <style type="text/css">
   <![CDATA[
    .str2 {stroke:#373435;stroke-width:1.9728}
    .str3 {stroke:#909090;stroke-width:1}
    .str0 {stroke:#4B4B4D;stroke-width:1.26235}
    .str1 {stroke:#373435;stroke-width:1.9728;stroke-linejoin:bevel}
    .fil4 {fill:#077EAB}
    .fil8 {fill:#0CFF0C}
    .fil2 {fill:#2185FF}
    .fil0 {fill:#21FF21}
    .fil3 {fill:#282829}
    .fil6 {fill:#5CE6D0}
    .fil7 {fill:#91D8F7}
    .fil9 {fill:#F5874F}
    .fil1 {fill:#FF3421}
    .fil10 {fill:#373435;fill-rule:nonzero}
     
     
    .fil5 {fill:#AFC4CD}

    .fil_p {fill:#FF8856}
    .fil_o {fill:#4295B5}
    .fil_d {fill:#FFD356}

    .Fill_Input1D {fill:#3DB3A6}
    .Fill_Input3D {fill:#3DB3A6}
    .Fill_Last {fill:#FFF5D8}
    .Fill_ShortCut {fill:#FF8956}
    .Fill_Middle {fill:#AFC4CD}
    .Fill_Conv3D {fill:#FF8956}
    .Fill_Softmax {fill:#FFD356}
    .Fill_Concat {fill:#FF8956}
    .Fill_FC {fill:#FFD356}
    .Fill_AvgPool {fill:#FF8956}
    .Fill_MaxPool {fill:#FF8956}
    .Fill_UpSample {fill:#FF8956}
    .Fill_DropOut3D {fill:#FF8956}
    .Fill_DropOut {fill:#FFD356}
    .Fill_Region {fill:#FFD356}
    .Fill_Flatten {fill:#FFD356}
    .Fill_Detection {fill:#FFD356}
    .Fill_Concat_Middle {fill:#ADCCC9}
    .Fill_Softmax3D {fill:#FFD356}
    .Fill_Conv2D_Advanced {fill:#FF8956}



    .fnt0 {font-weight:bold;font-size:14px;font-family:'Arial'}
   ]]>
  </style>
 </defs>
 <g transform=" scale(0.545455 , 0.545455)translate (0.000000 , 0 )" id="Layer_x0020_1">
  <metadata id="CorelCorpID_0Corel-Layer"/>
  <g id="_2188959232976">
   <rect class="fil_p str0" x="336" y="42" width="292" height="34"/>
   <rect class="fil_o str0" x="336" y="76" width="292" height="34"/>
   <rect class="fil_d str0" x="336" y="110" width="292" height="34"/>
   <g transform="matrix(1 0 0 1 -150.02 -706.919)">
    <text x="500" y="773"  class="fil3 fnt0">Total Params - </text>
    <text x="646" y="773"  class="fil3 fnt0">13.71M</text>
   </g>
   <g transform="matrix(1 0 0 1 -150.02 -675.669)">
    <text x="500" y="773"  class="fil3 fnt0">Total Ops      - </text>
    <text x="645" y="773"  class="fil3 fnt0">27.41M</text>
   </g>
   <g transform="matrix(1 0 0 1 -149.074 -639.684)">
    <text x="500" y="773"  class="fil3 fnt0">Total Data      - </text>
    <text x="646" y="773"  class="fil3 fnt0">11.69k</text>
   </g>
  </g>

<g transform="translate (0 , 180 )" xmlns="http://www.w3.org/2000/svg" id="_2188820419440">
     <g transform="translate(0,-252)">  
     <path class="Fill_Input1D str1" d="M103 252l194 0c4,0 7,2 7,6l0 23 -208 0 0 -23c0,-4 4,-6 7,-6l0 0z"/>
     <path class="Fill_Last str1" d="M96 281l208 0 0 22c0,4 -4,7 -7,7l-194 0c-3,0 -7,-3 -7,-7l0 -22 0 0z"/>
     <text text-anchor="middle" x="200" y="270" class="fil3 fnt0">Input1D</text>
     <text text-anchor="middle" x="200" y="301" class="fil3 fnt0">Dims - 2000</text>

    <rect class="fil_p str3" x="330" y="247" width="0" height="22.7269"/>
    <rect class="fil_o str3" x="330" y="270" width="0" height="22.7269"/>
    <rect class="fil_d str3" x="330" y="292" width="751.46" height="22.7269"/>
    <text x="335" y="262" class="fil3 fnt0">0</text>
    <text x="335" y="285" class="fil3 fnt0">0</text>
    <text x="335" y="308" class="fil3 fnt0">2k</text>
   </g>
  </g><g transform=" translate (0 , 238 )" xmlns="http://www.w3.org/2000/svg" id="Layer_x0020_1_0">
  <path transform=" translate(0,-210)" d="M198 245l0 -35 4 0 0 35 -4 0zm0 3l4 -2 -4 0 10 -16 4 3 -10 15 -4 0zm0 0l4 0 -2 3 -2 -3 0 0zm-8 -17l1 -1 11 16 -4 2 -10 -15 2 -2 0 0z" class="fil10"/>


 </g>
<g transform="translate (0 , 279 )" xmlns="http://www.w3.org/2000/svg" id="_2188820445584">
   <g transform="translate(0,-342)">  
   <path class="Fill_FC str1" d="M103 342l195 0c4,0 7,2 7,6l0 23 -209 0 0 -23c0,-4 3,-6 7,-6l0 0z"/>
   <polygon class="Fill_Middle str2" points="96,399 305,399 305,370 96,370 "/>
   <path class="Fill_Last str1" d="M96 399l209 0 0 23c0,3 -3,6 -7,6l-195 0c-4,0 -7,-3 -7,-6l0 -23 0 0z"/>
   <text text-anchor="middle" x="200" y="361" class="fil3 fnt0">FC - 2048</text>
   <text text-anchor="middle" x="200" y="390" class="fil3 fnt0">Swish</text>
   <text text-anchor="middle" x="200" y="419" class="fil3 fnt0">Dims - 2048</text>
 
    <rect class="fil_p str3" x="330" y="351" width="769.5" height="22.7269"/>
    <rect class="fil_o str3" x="330" y="374" width="769.5" height="22.7269"/>
    <rect class="fil_d str3" x="330" y="396" width="769.5" height="22.7269"/>
    <text x="335" y="367" class="fil3 fnt0">4.098M</text>
    <text x="335" y="390" class="fil3 fnt0">8.194M</text>
    <text x="335" y="412" class="fil3 fnt0">2.048k</text>
   </g>
  </g><g transform=" translate (0 , 364 )" xmlns="http://www.w3.org/2000/svg" id="Layer_x0020_1_0">
  <path transform=" translate(0,-210)" d="M198 245l0 -35 4 0 0 35 -4 0zm0 3l4 -2 -4 0 10 -16 4 3 -10 15 -4 0zm0 0l4 0 -2 3 -2 -3 0 0zm-8 -17l1 -1 11 16 -4 2 -10 -15 2 -2 0 0z" class="fil10"/>


 </g>
<g transform="translate (0 , 405 )" xmlns="http://www.w3.org/2000/svg" id="_2188820445584">
   <g transform="translate(0,-342)">  
   <path class="Fill_FC str1" d="M103 342l195 0c4,0 7,2 7,6l0 23 -209 0 0 -23c0,-4 3,-6 7,-6l0 0z"/>
   <polygon class="Fill_Middle str2" points="96,399 305,399 305,370 96,370 "/>
   <path class="Fill_Last str1" d="M96 399l209 0 0 23c0,3 -3,6 -7,6l-195 0c-4,0 -7,-3 -7,-6l0 -23 0 0z"/>
   <text text-anchor="middle" x="200" y="361" class="fil3 fnt0">FC - 1024</text>
   <text text-anchor="middle" x="200" y="390" class="fil3 fnt0">Swish</text>
   <text text-anchor="middle" x="200" y="419" class="fil3 fnt0">Dims - 1024</text>
 
    <rect class="fil_p str3" x="330" y="351" width="393.98" height="22.7269"/>
    <rect class="fil_o str3" x="330" y="374" width="393.98" height="22.7269"/>
    <rect class="fil_d str3" x="330" y="396" width="384.75" height="22.7269"/>
    <text x="335" y="367" class="fil3 fnt0">2.098M</text>
    <text x="335" y="390" class="fil3 fnt0">4.195M</text>
    <text x="335" y="412" class="fil3 fnt0">1.024k</text>
   </g>
  </g><g transform=" translate (0 , 490 )" xmlns="http://www.w3.org/2000/svg" id="Layer_x0020_1_0">
  <path transform=" translate(0,-210)" d="M198 245l0 -35 4 0 0 35 -4 0zm0 3l4 -2 -4 0 10 -16 4 3 -10 15 -4 0zm0 0l4 0 -2 3 -2 -3 0 0zm-8 -17l1 -1 11 16 -4 2 -10 -15 2 -2 0 0z" class="fil10"/>


 </g>
<g transform="translate (0 , 531 )" xmlns="http://www.w3.org/2000/svg" id="_2188820445584">
   <g transform="translate(0,-342)">  
   <path class="Fill_FC str1" d="M103 342l195 0c4,0 7,2 7,6l0 23 -209 0 0 -23c0,-4 3,-6 7,-6l0 0z"/>
   <polygon class="Fill_Middle str2" points="96,399 305,399 305,370 96,370 "/>
   <path class="Fill_Last str1" d="M96 399l209 0 0 23c0,3 -3,6 -7,6l-195 0c-4,0 -7,-3 -7,-6l0 -23 0 0z"/>
   <text text-anchor="middle" x="200" y="361" class="fil3 fnt0">FC - 512</text>
   <text text-anchor="middle" x="200" y="390" class="fil3 fnt0">Swish</text>
   <text text-anchor="middle" x="200" y="419" class="fil3 fnt0">Dims - 512</text>
 
    <rect class="fil_p str3" x="330" y="351" width="98.543" height="22.7269"/>
    <rect class="fil_o str3" x="330" y="374" width="98.519" height="22.7269"/>
    <rect class="fil_d str3" x="330" y="396" width="192.37" height="22.7269"/>
    <text x="335" y="367" class="fil3 fnt0">524.8k</text>
    <text x="335" y="390" class="fil3 fnt0">1.049M</text>
    <text x="335" y="412" class="fil3 fnt0">512</text>
   </g>
  </g><g transform=" translate (0 , 616 )" xmlns="http://www.w3.org/2000/svg" id="Layer_x0020_1_0">
  <path transform=" translate(0,-210)" d="M198 245l0 -35 4 0 0 35 -4 0zm0 3l4 -2 -4 0 10 -16 4 3 -10 15 -4 0zm0 0l4 0 -2 3 -2 -3 0 0zm-8 -17l1 -1 11 16 -4 2 -10 -15 2 -2 0 0z" class="fil10"/>


 </g>
<g transform="translate (0 , 657 )" xmlns="http://www.w3.org/2000/svg" id="_2188820445584">
   <g transform="translate(0,-342)">  
   <path class="Fill_FC str1" d="M103 342l195 0c4,0 7,2 7,6l0 23 -209 0 0 -23c0,-4 3,-6 7,-6l0 0z"/>
   <polygon class="Fill_Middle str2" points="96,399 305,399 305,370 96,370 "/>
   <path class="Fill_Last str1" d="M96 399l209 0 0 23c0,3 -3,6 -7,6l-195 0c-4,0 -7,-3 -7,-6l0 -23 0 0z"/>
   <text text-anchor="middle" x="200" y="361" class="fil3 fnt0">FC - 256</text>
   <text text-anchor="middle" x="200" y="390" class="fil3 fnt0">Swish</text>
   <text text-anchor="middle" x="200" y="419" class="fil3 fnt0">Dims - 256</text>
 
    <rect class="fil_p str3" x="330" y="351" width="24.66" height="22.7269"/>
    <rect class="fil_o str3" x="330" y="374" width="24.642" height="22.7269"/>
    <rect class="fil_d str3" x="330" y="396" width="96.187" height="22.7269"/>
    <text x="335" y="367" class="fil3 fnt0">131.3k</text>
    <text x="335" y="390" class="fil3 fnt0">262.4k</text>
    <text x="335" y="412" class="fil3 fnt0">256</text>
   </g>
  </g><g transform=" translate (0 , 742 )" xmlns="http://www.w3.org/2000/svg" id="Layer_x0020_1_0">
  <path transform=" translate(0,-210)" d="M198 245l0 -35 4 0 0 35 -4 0zm0 3l4 -2 -4 0 10 -16 4 3 -10 15 -4 0zm0 0l4 0 -2 3 -2 -3 0 0zm-8 -17l1 -1 11 16 -4 2 -10 -15 2 -2 0 0z" class="fil10"/>


 </g>
<g transform="translate (0 , 783 )" xmlns="http://www.w3.org/2000/svg" id="_2188820445584">
   <g transform="translate(0,-342)">  
   <path class="Fill_FC str1" d="M103 342l195 0c4,0 7,2 7,6l0 23 -209 0 0 -23c0,-4 3,-6 7,-6l0 0z"/>
   <polygon class="Fill_Middle str2" points="96,399 305,399 305,370 96,370 "/>
   <path class="Fill_Last str1" d="M96 399l209 0 0 23c0,3 -3,6 -7,6l-195 0c-4,0 -7,-3 -7,-6l0 -23 0 0z"/>
   <text text-anchor="middle" x="200" y="361" class="fil3 fnt0">FC - 10</text>
   <text text-anchor="middle" x="200" y="390" class="fil3 fnt0">None</text>
   <text text-anchor="middle" x="200" y="419" class="fil3 fnt0">Dims - 10</text>
 
    <rect class="fil_p str3" x="330" y="351" width="0.48257" height="22.7269"/>
    <rect class="fil_o str3" x="330" y="374" width="0.48176" height="22.7269"/>
    <rect class="fil_d str3" x="330" y="396" width="3.7573" height="22.7269"/>
    <text x="335" y="367" class="fil3 fnt0">2.57k</text>
    <text x="335" y="390" class="fil3 fnt0">5.13k</text>
    <text x="335" y="412" class="fil3 fnt0">10</text>
   </g>
  </g><g transform=" translate (0 , 868 )" xmlns="http://www.w3.org/2000/svg" id="Layer_x0020_1_0">
  <path transform=" translate(0,-210)" d="M198 245l0 -35 4 0 0 35 -4 0zm0 3l4 -2 -4 0 10 -16 4 3 -10 15 -4 0zm0 0l4 0 -2 3 -2 -3 0 0zm-8 -17l1 -1 11 16 -4 2 -10 -15 2 -2 0 0z" class="fil10"/>


 </g>
<g transform="translate (0 , 909 )" xmlns="http://www.w3.org/2000/svg" id="_2188820445584">
   <g transform="translate(0,-342)">  
   <path class="Fill_FC str1" d="M103 342l195 0c4,0 7,2 7,6l0 23 -209 0 0 -23c0,-4 3,-6 7,-6l0 0z"/>
   <polygon class="Fill_Middle str2" points="96,399 305,399 305,370 96,370 "/>
   <path class="Fill_Last str1" d="M96 399l209 0 0 23c0,3 -3,6 -7,6l-195 0c-4,0 -7,-3 -7,-6l0 -23 0 0z"/>
   <text text-anchor="middle" x="200" y="361" class="fil3 fnt0">FC - 256</text>
   <text text-anchor="middle" x="200" y="390" class="fil3 fnt0">Swish</text>
   <text text-anchor="middle" x="200" y="419" class="fil3 fnt0">Dims - 256</text>
 
    <rect class="fil_p str3" x="330" y="351" width="0.52877" height="22.7269"/>
    <rect class="fil_o str3" x="330" y="374" width="0.50486" height="22.7269"/>
    <rect class="fil_d str3" x="330" y="396" width="96.187" height="22.7269"/>
    <text x="335" y="367" class="fil3 fnt0">2.816k</text>
    <text x="335" y="390" class="fil3 fnt0">5.376k</text>
    <text x="335" y="412" class="fil3 fnt0">256</text>
   </g>
  </g><g transform=" translate (0 , 994 )" xmlns="http://www.w3.org/2000/svg" id="Layer_x0020_1_0">
  <path transform=" translate(0,-210)" d="M198 245l0 -35 4 0 0 35 -4 0zm0 3l4 -2 -4 0 10 -16 4 3 -10 15 -4 0zm0 0l4 0 -2 3 -2 -3 0 0zm-8 -17l1 -1 11 16 -4 2 -10 -15 2 -2 0 0z" class="fil10"/>


 </g>
<g transform="translate (0 , 1035 )" xmlns="http://www.w3.org/2000/svg" id="_2188820445584">
   <g transform="translate(0,-342)">  
   <path class="Fill_FC str1" d="M103 342l195 0c4,0 7,2 7,6l0 23 -209 0 0 -23c0,-4 3,-6 7,-6l0 0z"/>
   <polygon class="Fill_Middle str2" points="96,399 305,399 305,370 96,370 "/>
   <path class="Fill_Last str1" d="M96 399l209 0 0 23c0,3 -3,6 -7,6l-195 0c-4,0 -7,-3 -7,-6l0 -23 0 0z"/>
   <text text-anchor="middle" x="200" y="361" class="fil3 fnt0">FC - 512</text>
   <text text-anchor="middle" x="200" y="390" class="fil3 fnt0">Swish</text>
   <text text-anchor="middle" x="200" y="419" class="fil3 fnt0">Dims - 512</text>
 
    <rect class="fil_p str3" x="330" y="351" width="24.708" height="22.7269"/>
    <rect class="fil_o str3" x="330" y="374" width="24.666" height="22.7269"/>
    <rect class="fil_d str3" x="330" y="396" width="192.37" height="22.7269"/>
    <text x="335" y="367" class="fil3 fnt0">131.6k</text>
    <text x="335" y="390" class="fil3 fnt0">262.7k</text>
    <text x="335" y="412" class="fil3 fnt0">512</text>
   </g>
  </g><g transform=" translate (0 , 1120 )" xmlns="http://www.w3.org/2000/svg" id="Layer_x0020_1_0">
  <path transform=" translate(0,-210)" d="M198 245l0 -35 4 0 0 35 -4 0zm0 3l4 -2 -4 0 10 -16 4 3 -10 15 -4 0zm0 0l4 0 -2 3 -2 -3 0 0zm-8 -17l1 -1 11 16 -4 2 -10 -15 2 -2 0 0z" class="fil10"/>


 </g>
<g transform="translate (0 , 1161 )" xmlns="http://www.w3.org/2000/svg" id="_2188820445584">
   <g transform="translate(0,-342)">  
   <path class="Fill_FC str1" d="M103 342l195 0c4,0 7,2 7,6l0 23 -209 0 0 -23c0,-4 3,-6 7,-6l0 0z"/>
   <polygon class="Fill_Middle str2" points="96,399 305,399 305,370 96,370 "/>
   <path class="Fill_Last str1" d="M96 399l209 0 0 23c0,3 -3,6 -7,6l-195 0c-4,0 -7,-3 -7,-6l0 -23 0 0z"/>
   <text text-anchor="middle" x="200" y="361" class="fil3 fnt0">FC - 1024</text>
   <text text-anchor="middle" x="200" y="390" class="fil3 fnt0">Swish</text>
   <text text-anchor="middle" x="200" y="419" class="fil3 fnt0">Dims - 1024</text>
 
    <rect class="fil_p str3" x="330" y="351" width="98.639" height="22.7269"/>
    <rect class="fil_o str3" x="330" y="374" width="98.568" height="22.7269"/>
    <rect class="fil_d str3" x="330" y="396" width="384.75" height="22.7269"/>
    <text x="335" y="367" class="fil3 fnt0">525.3k</text>
    <text x="335" y="390" class="fil3 fnt0">1.05M</text>
    <text x="335" y="412" class="fil3 fnt0">1.024k</text>
   </g>
  </g><g transform=" translate (0 , 1246 )" xmlns="http://www.w3.org/2000/svg" id="Layer_x0020_1_0">
  <path transform=" translate(0,-210)" d="M198 245l0 -35 4 0 0 35 -4 0zm0 3l4 -2 -4 0 10 -16 4 3 -10 15 -4 0zm0 0l4 0 -2 3 -2 -3 0 0zm-8 -17l1 -1 11 16 -4 2 -10 -15 2 -2 0 0z" class="fil10"/>


 </g>
<g transform="translate (0 , 1287 )" xmlns="http://www.w3.org/2000/svg" id="_2188820445584">
   <g transform="translate(0,-342)">  
   <path class="Fill_FC str1" d="M103 342l195 0c4,0 7,2 7,6l0 23 -209 0 0 -23c0,-4 3,-6 7,-6l0 0z"/>
   <polygon class="Fill_Middle str2" points="96,399 305,399 305,370 96,370 "/>
   <path class="Fill_Last str1" d="M96 399l209 0 0 23c0,3 -3,6 -7,6l-195 0c-4,0 -7,-3 -7,-6l0 -23 0 0z"/>
   <text text-anchor="middle" x="200" y="361" class="fil3 fnt0">FC - 2048</text>
   <text text-anchor="middle" x="200" y="390" class="fil3 fnt0">Swish</text>
   <text text-anchor="middle" x="200" y="419" class="fil3 fnt0">Dims - 2048</text>
 
    <rect class="fil_p str3" x="330" y="351" width="394.17" height="22.7269"/>
    <rect class="fil_o str3" x="330" y="374" width="394.08" height="22.7269"/>
    <rect class="fil_d str3" x="330" y="396" width="769.5" height="22.7269"/>
    <text x="335" y="367" class="fil3 fnt0">2.099M</text>
    <text x="335" y="390" class="fil3 fnt0">4.196M</text>
    <text x="335" y="412" class="fil3 fnt0">2.048k</text>
   </g>
  </g><g transform=" translate (0 , 1372 )" xmlns="http://www.w3.org/2000/svg" id="Layer_x0020_1_0">
  <path transform=" translate(0,-210)" d="M198 245l0 -35 4 0 0 35 -4 0zm0 3l4 -2 -4 0 10 -16 4 3 -10 15 -4 0zm0 0l4 0 -2 3 -2 -3 0 0zm-8 -17l1 -1 11 16 -4 2 -10 -15 2 -2 0 0z" class="fil10"/>


 </g>
<g transform="translate (0 , 1413 )" xmlns="http://www.w3.org/2000/svg" id="_2188820445584">
   <g transform="translate(0,-342)">  
   <path class="Fill_FC str1" d="M103 342l195 0c4,0 7,2 7,6l0 23 -209 0 0 -23c0,-4 3,-6 7,-6l0 0z"/>
   <polygon class="Fill_Middle str2" points="96,399 305,399 305,370 96,370 "/>
   <path class="Fill_Last str1" d="M96 399l209 0 0 23c0,3 -3,6 -7,6l-195 0c-4,0 -7,-3 -7,-6l0 -23 0 0z"/>
   <text text-anchor="middle" x="200" y="361" class="fil3 fnt0">FC - 2000</text>
   <text text-anchor="middle" x="200" y="390" class="fil3 fnt0">None</text>
   <text text-anchor="middle" x="200" y="419" class="fil3 fnt0">Dims - 2000</text>
 
    <rect class="fil_p str3" x="330" y="351" width="769.49" height="22.7269"/>
    <rect class="fil_o str3" x="330" y="374" width="769.5" height="22.7269"/>
    <rect class="fil_d str3" x="330" y="396" width="751.46" height="22.7269"/>
    <text x="335" y="367" class="fil3 fnt0">4.098M</text>
    <text x="335" y="390" class="fil3 fnt0">8.194M</text>
    <text x="335" y="412" class="fil3 fnt0">2k</text>
   </g>
  </g>
</g>
</svg>
