<?xml version="1.0" encoding="UTF-8"?>
<!DOCTYPE svg PUBLIC "-//W3C//DTD SVG 1.1//EN" "http://www.w3.org/Graphics/SVG/1.1/DTD/svg11.dtd">
<!-- Creator: Ngene-->
<svg xmlns="http://www.w3.org/2000/svg" xml:space="preserve" width=" 1328 " height=" 2328 " version="1.1" style="shape-rendering:geometricPrecision; text-rendering:geometricPrecision; image-rendering:optimizeQuality; fill-rule:evenodd; clip-rule:evenodd"
viewBox="0 0 viewboxx viewboxy"
 xmlns:xlink="http://www.w3.org/1999/xlink">
 <defs>
  <style type="text/css">
   <![CDATA[
    .str2 {stroke:#373435;stroke-width:1.9728}
    .str3 {stroke:#909090;stroke-width:1}
    .str0 {stroke:#4B4B4D;stroke-width:1.26235}
    .str1 {stroke:#373435;stroke-width:1.9728;stroke-linejoin:bevel}
    .fil4 {fill:#077EAB}
    .fil8 {fill:#0CFF0C}
    .fil2 {fill:#2185FF}
    .fil0 {fill:#21FF21}
    .fil3 {fill:#282829}
    .fil6 {fill:#5CE6D0}
    .fil7 {fill:#91D8F7}
    .fil9 {fill:#F5874F}
    .fil1 {fill:#FF3421}
    .fil10 {fill:#373435;fill-rule:nonzero}
     
     
    .fil5 {fill:#AFC4CD}

    .fil_p {fill:#FF8856}
    .fil_o {fill:#4295B5}
    .fil_d {fill:#FFD356}

    .Fill_Input1D {fill:#3DB3A6}
    .Fill_Input3D {fill:#3DB3A6}
    .Fill_Last {fill:#FFF5D8}
    .Fill_ShortCut {fill:#FF8956}
    .Fill_Middle {fill:#AFC4CD}
    .Fill_Conv3D {fill:#FF8956}
    .Fill_Softmax {fill:#FFD356}
    .Fill_Concat {fill:#FF8956}
    .Fill_FC {fill:#FFD356}
    .Fill_AvgPool {fill:#FF8956}
    .Fill_MaxPool {fill:#FF8956}
    .Fill_UpSample {fill:#FF8956}
    .Fill_DropOut3D {fill:#FF8956}
    .Fill_DropOut {fill:#FFD356}
    .Fill_Region {fill:#FFD356}
    .Fill_Flatten {fill:#FFD356}
    .Fill_Detection {fill:#FFD356}
    .Fill_Concat_Middle {fill:#ADCCC9}
    .Fill_Softmax3D {fill:#FFD356}
    .Fill_Conv2D_Advanced {fill:#FF8956}



    .fnt0 {font-weight:bold;font-size:14px;font-family:'Arial'}
   ]]>
  </style>
 </defs>
 <g transform=" scale(1.000000 , 1.000000)translate (0.000000 , 0 )" id="Layer_x0020_1">
  <metadata id="CorelCorpID_0Corel-Layer"/>
  <g id="_2188959232976">
   <rect class="fil_p str0" x="336" y="42" width="292" height="34"/>
   <rect class="fil_o str0" x="336" y="76" width="292" height="34"/>
   <rect class="fil_d str0" x="336" y="110" width="292" height="34"/>
   <g transform="matrix(1 0 0 1 -150.02 -706.919)">
    <text x="500" y="773"  class="fil3 fnt0">Total Params - </text>
    <text x="646" y="773"  class="fil3 fnt0">19.72k</text>
   </g>
   <g transform="matrix(1 0 0 1 -150.02 -675.669)">
    <text x="500" y="773"  class="fil3 fnt0">Total Ops      - </text>
    <text x="645" y="773"  class="fil3 fnt0">39.18k</text>
   </g>
   <g transform="matrix(1 0 0 1 -149.074 -639.684)">
    <text x="500" y="773"  class="fil3 fnt0">Total Data      - </text>
    <text x="646" y="773"  class="fil3 fnt0">280</text>
   </g>
  </g>

<g transform="translate (0 , 180 )" xmlns="http://www.w3.org/2000/svg" id="_2188820419440">
     <g transform="translate(0,-252)">  
     <path class="Fill_Input1D str1" d="M103 252l194 0c4,0 7,2 7,6l0 23 -208 0 0 -23c0,-4 4,-6 7,-6l0 0z"/>
     <path class="Fill_Last str1" d="M96 281l208 0 0 22c0,4 -4,7 -7,7l-194 0c-3,0 -7,-3 -7,-7l0 -22 0 0z"/>
     <text text-anchor="middle" x="200" y="270" class="fil3 fnt0">Input1D</text>
     <text text-anchor="middle" x="200" y="301" class="fil3 fnt0">Dims - 16</text>

    <rect class="fil_p str3" x="330" y="247" width="0" height="22.7269"/>
    <rect class="fil_o str3" x="330" y="270" width="0" height="22.7269"/>
    <rect class="fil_d str3" x="330" y="292" width="41.062" height="22.7269"/>
    <text x="335" y="262" class="fil3 fnt0">0</text>
    <text x="335" y="285" class="fil3 fnt0">0</text>
    <text x="335" y="308" class="fil3 fnt0">16</text>
   </g>
  </g><g transform=" translate (0 , 238 )" xmlns="http://www.w3.org/2000/svg" id="Layer_x0020_1_0">
  <path transform=" translate(0,-210)" d="M198 245l0 -35 4 0 0 35 -4 0zm0 3l4 -2 -4 0 10 -16 4 3 -10 15 -4 0zm0 0l4 0 -2 3 -2 -3 0 0zm-8 -17l1 -1 11 16 -4 2 -10 -15 2 -2 0 0z" class="fil10"/>


 </g>
<g transform="translate (0 , 279 )" xmlns="http://www.w3.org/2000/svg" id="_2188820445584">
   <g transform="translate(0,-342)">  
   <path class="Fill_FC str1" d="M103 342l195 0c4,0 7,2 7,6l0 23 -209 0 0 -23c0,-4 3,-6 7,-6l0 0z"/>
   <polygon class="Fill_Middle str2" points="96,399 305,399 305,370 96,370 "/>
   <path class="Fill_Last str1" d="M96 399l209 0 0 23c0,3 -3,6 -7,6l-195 0c-4,0 -7,-3 -7,-6l0 -23 0 0z"/>
   <text text-anchor="middle" x="200" y="361" class="fil3 fnt0">FC - 128</text>
   <text text-anchor="middle" x="200" y="390" class="fil3 fnt0">LReLU</text>
   <text text-anchor="middle" x="200" y="419" class="fil3 fnt0">Dims - 128</text>
 
    <rect class="fil_p str3" x="330" y="351" width="43.291" height="22.7269"/>
    <rect class="fil_o str3" x="330" y="374" width="42.181" height="22.7269"/>
    <rect class="fil_d str3" x="330" y="396" width="328.5" height="22.7269"/>
    <text x="335" y="367" class="fil3 fnt0">2.176k</text>
    <text x="335" y="390" class="fil3 fnt0">4.224k</text>
    <text x="335" y="412" class="fil3 fnt0">128</text>
   </g>
  </g><g transform=" translate (0 , 364 )" xmlns="http://www.w3.org/2000/svg" id="Layer_x0020_1_0">
  <path transform=" translate(0,-210)" d="M198 245l0 -35 4 0 0 35 -4 0zm0 3l4 -2 -4 0 10 -16 4 3 -10 15 -4 0zm0 0l4 0 -2 3 -2 -3 0 0zm-8 -17l1 -1 11 16 -4 2 -10 -15 2 -2 0 0z" class="fil10"/>


 </g>
<g transform="translate (0 , 405 )" xmlns="http://www.w3.org/2000/svg" id="_2188820445584">
   <g transform="translate(0,-342)">  
   <path class="Fill_FC str1" d="M103 342l195 0c4,0 7,2 7,6l0 23 -209 0 0 -23c0,-4 3,-6 7,-6l0 0z"/>
   <polygon class="Fill_Middle str2" points="96,399 305,399 305,370 96,370 "/>
   <path class="Fill_Last str1" d="M96 399l209 0 0 23c0,3 -3,6 -7,6l-195 0c-4,0 -7,-3 -7,-6l0 -23 0 0z"/>
   <text text-anchor="middle" x="200" y="361" class="fil3 fnt0">FC - 128</text>
   <text text-anchor="middle" x="200" y="390" class="fil3 fnt0">LReLU</text>
   <text text-anchor="middle" x="200" y="419" class="fil3 fnt0">Dims - 128</text>
 
    <rect class="fil_p str3" x="330" y="351" width="328.5" height="22.7269"/>
    <rect class="fil_o str3" x="330" y="374" width="328.5" height="22.7269"/>
    <rect class="fil_d str3" x="330" y="396" width="328.5" height="22.7269"/>
    <text x="335" y="367" class="fil3 fnt0">16.51k</text>
    <text x="335" y="390" class="fil3 fnt0">32.9k</text>
    <text x="335" y="412" class="fil3 fnt0">128</text>
   </g>
  </g><g transform=" translate (0 , 490 )" xmlns="http://www.w3.org/2000/svg" id="Layer_x0020_1_0">
  <path transform=" translate(0,-210)" d="M198 245l0 -35 4 0 0 35 -4 0zm0 3l4 -2 -4 0 10 -16 4 3 -10 15 -4 0zm0 0l4 0 -2 3 -2 -3 0 0zm-8 -17l1 -1 11 16 -4 2 -10 -15 2 -2 0 0z" class="fil10"/>


 </g>
<g transform="translate (0 , 531 )" xmlns="http://www.w3.org/2000/svg" id="_2188820445584">
   <g transform="translate(0,-342)">  
   <path class="Fill_FC str1" d="M103 342l195 0c4,0 7,2 7,6l0 23 -209 0 0 -23c0,-4 3,-6 7,-6l0 0z"/>
   <polygon class="Fill_Middle str2" points="96,399 305,399 305,370 96,370 "/>
   <path class="Fill_Last str1" d="M96 399l209 0 0 23c0,3 -3,6 -7,6l-195 0c-4,0 -7,-3 -7,-6l0 -23 0 0z"/>
   <text text-anchor="middle" x="200" y="361" class="fil3 fnt0">FC - 8</text>
   <text text-anchor="middle" x="200" y="390" class="fil3 fnt0">Sigmoid</text>
   <text text-anchor="middle" x="200" y="419" class="fil3 fnt0">Dims - 8</text>
 
    <rect class="fil_p str3" x="330" y="351" width="20.531" height="22.7269"/>
    <rect class="fil_o str3" x="330" y="374" width="20.531" height="22.7269"/>
    <rect class="fil_d str3" x="330" y="396" width="20.531" height="22.7269"/>
    <text x="335" y="367" class="fil3 fnt0">1.032k</text>
    <text x="335" y="390" class="fil3 fnt0">2.056k</text>
    <text x="335" y="412" class="fil3 fnt0">8</text>
   </g>
  </g>
</g>
</svg>
